# xmcd
#
# Track frame offsets: 
#        150
#        8197
#        21635
#        34068
#        45329
#        59705
#        69926
#        79974
#        92189
#        101393
#        113428
#        124917
#
# Disc length: 1879 seconds
#
# Revision: 2
# Processed by: cddbd v1.5.2PL0 Copyright (c) Steve Scherf et al.
# Submitted via: ExactAudioCopy v0.95b4
#
DISCID=9907550c
DTITLE=The Piccadilly Bullfrogs - Hoppers, Boppers and Rockers
DYEAR=2010
DGENRE=Rockabilly
TTITLE0=Move Around
TTITLE1=Cuttroath Joe!
TTITLE2=Boppin' The Blues
TTITLE3=Banksy
TTITLE4=Wildcat Tamer
TTITLE5=No Time To Loose
TTITLE6=Sunshine Hop
TTITLE7=I Could Have Been Somebody
TTITLE8=The Ace Boogie
TTITLE9=Right String Baby (But The Wrong Yo-Yo)
TTITLE10=Don't Hold Back
TTITLE11=Ride Ride Ride
EXTD=
EXTT0=
EXTT1=
EXTT2=
EXTT3=
EXTT4=
EXTT5=
EXTT6=
EXTT7=
EXTT8=
EXTT9=
EXTT10=
EXTT11=
PLAYORDER=
